# xmcd CD database file
#
# Track frame offsets:
#	150
#	17927
#	32479
#	43656
#	60233
#	75610
#	90162
#	104189
#	117016
#	128043
#	141245
#	161347
#	179799
#
# Disc length: 2569 seconds
#
# Revision: 0
# Processed by: cddbd v1.5.2PL0 Copyright (c) Steve Scherf et al.
# Submitted via: CDex 1.51
#
DISCID=a40a070d
DTITLE=Graham Rodgers - The Fire Within 
DYEAR=1900
DGENRE=Country
TTITLE0=A Saddle For A Throne
TTITLE1=Manabadgerrie Run
TTITLE2=Carra Barra Wirra Canna
TTITLE3=Diamantina
TTITLE4=Pack Saddle Drover
TTITLE5=The Land Of Ringer Trumby
TTITLE6=Rough Country Ringer
TTITLE7=Water From The Devil
TTITLE8=She's My Rig
TTITLE9=The Kin Kin Hotel
TTITLE10=Give This Hug To Daddy
TTITLE11=The Battle Of Coral
TTITLE12=You Can't Take Australia From Me
EXTD=
EXTT0=
EXTT1=
EXTT2=
EXTT3=
EXTT4=
EXTT5=
EXTT6=
EXTT7=
EXTT8=
EXTT9=
EXTT10=
EXTT11=
EXTT12=
PLAYORDER=
